<svg class="db" version="1.1" xmlns="http://www.w3.org/2000/svg" xmlns:xlink="http://www.w3.org/1999/xlink" xmlns:a="http://ns.adobe.com/AdobeSVGViewerExtensions/3.0/"
	 x="0px" y="0px" width="15px" height="15.484px" viewBox="0 0 15 15.484" enable-background="new 0 0 15 15.484"
	 xml:space="preserve">
<path fill="#D52942" d="M0.015,14.323c0.001-1.425,0.001-2.851,0.001-4.276c0-0.172,0-0.173,0.168-0.173
	c0.584,0,1.168,0,1.753,0.001c0.049,0,0.101-0.014,0.147,0.016c0.002,1.108,0.006,2.216,0.001,3.324
	c-0.001,0.148,0.029,0.191,0.186,0.191c3.486-0.005,6.972-0.005,10.458,0c0.157,0,0.187-0.043,0.186-0.191
	c-0.005-1.108-0.001-2.216,0.001-3.324c0.041-0.028,0.088-0.016,0.132-0.016c0.594-0.001,1.189,0.003,1.783-0.004
	c0.129-0.002,0.157,0.038,0.156,0.16c-0.004,1.441-0.003,2.881-0.002,4.322c0,0.054,0.015,0.104,0.015,0.163c0,0.03,0,0.06,0,0.091
	c-0.044,0.307-0.192,0.547-0.448,0.725c-0.122,0.085-0.259,0.12-0.399,0.152c-4.446,0-8.891,0-13.337,0
	c-0.281-0.061-0.498-0.212-0.664-0.446C0.06,14.906,0.035,14.756,0,14.607 M6.23,0C6.08,0.061,6.044,0.172,6.045,0.33
	c0.006,1.673,0.002,3.345,0.006,5.018c0,0.12-0.032,0.151-0.15,0.149C5.412,5.491,4.924,5.492,4.435,5.496
	c-0.096,0.001-0.22-0.03-0.273,0.079C4.104,5.692,4.21,5.774,4.272,5.851c0.234,0.29,0.477,0.573,0.715,0.86
	C5.736,7.615,6.483,8.52,7.232,9.423c0.254,0.306,0.42,0.308,0.68,0.002c0.189-0.223,0.373-0.45,0.551-0.681
	c0.749-0.974,1.495-1.95,2.243-2.925c0.072-0.095,0.185-0.188,0.132-0.316c-0.058-0.14-0.211-0.116-0.333-0.118
	c-0.443-0.004-0.887-0.009-1.33,0.002C9.024,5.391,8.996,5.346,8.997,5.204C9.002,3.582,8.999,1.96,9.002,0.337
	C9.002,0.177,8.973,0.05,8.8,0C7.944,0,7.087,0,6.23,0z"/>
</svg>