<?xml version="1.0" encoding="utf-8"?>
<!-- Generator: Adobe Illustrator 20.0.0, SVG Export Plug-In . SVG Version: 6.00 Build 0)  -->
<svg version="1.1" xmlns="http://www.w3.org/2000/svg" xmlns:xlink="http://www.w3.org/1999/xlink" x="0px" y="0px"
	 width="197.4px" height="29.2px" viewBox="0 0 197.4 29.2" style="enable-background:new 0 0 197.4 29.2;" xml:space="preserve">
<path class="st0" fill="#DFE1E2" d="M179.3,4.1h13.4v24.5L179.3,4.1z"/>
<path class="st1" fill="#E30427" d="M181.7,0.5h15.7v28.6L181.7,0.5z"/>
<path class="st2" fill="#FFFFFF" d="M0,0.5h23.6v5.4H8.8v3h13.8v5.4H8.8v3h14.9v5.4H0V0.5z M43.6,13.9h-9.9v8.9H25V0.5h8.8v7.8h9.9V0.5h8.8v22.2
	h-8.8V13.9z M63,0.5h10.8l9.5,22.2h-9.3l-0.9-2.6h-9.2l-0.9,2.6h-9.3L63,0.5z M68.4,7.2L68.4,7.2l-2.7,7.5H71L68.4,7.2z M93.5,13.1
	v-1.8h9.5v11.4h-1.8V19c-0.4,0.7-0.8,1.3-1.3,1.8c-0.5,0.5-1.1,1-1.7,1.4c-0.7,0.4-1.4,0.7-2.3,0.9c-0.9,0.2-1.8,0.3-2.9,0.3
	c-1.4,0-2.7-0.2-3.9-0.7c-1.2-0.5-2.2-1.2-3.1-2.2c-0.9-1-1.5-2.2-2-3.7c-0.5-1.5-0.7-3.2-0.7-5.2c0-1.6,0.2-3.1,0.6-4.5
	c0.4-1.4,1-2.6,1.9-3.7c0.9-1,1.9-1.9,3.2-2.4C90.2,0.3,91.7,0,93.5,0c1.2,0,2.3,0.1,3.3,0.4c1,0.3,1.9,0.7,2.7,1.3
	c0.8,0.6,1.5,1.3,2,2.2s1,1.9,1.2,3.1h-2.2c-0.2-0.8-0.5-1.6-0.9-2.2c-0.4-0.7-1-1.2-1.6-1.6c-0.6-0.4-1.3-0.8-2.1-1
	c-0.8-0.2-1.5-0.4-2.4-0.4c-1.5,0-2.7,0.3-3.8,0.8S88,3.8,87.3,4.7c-0.7,0.9-1.2,2.1-1.5,3.4c-0.3,1.3-0.5,2.7-0.5,4.3
	c0,1.2,0.2,2.4,0.5,3.5c0.4,1.1,0.9,2.1,1.6,2.9c0.7,0.8,1.5,1.5,2.5,2c1,0.5,2.1,0.7,3.4,0.7c0.6,0,1.2-0.1,1.8-0.2
	c0.6-0.1,1.3-0.4,1.8-0.7c0.6-0.3,1.1-0.7,1.7-1.2c0.5-0.5,1-1.1,1.3-1.8c0.3-0.7,0.6-1.4,0.7-2.2c0.1-0.8,0.2-1.6,0.2-2.4H93.5z
	 M109.1,22.7h-1.8V6.8h1.8v3h0.1c0.5-1.3,1.2-2.2,2-2.7c0.8-0.5,1.9-0.8,3.2-0.8v2c-1,0-1.9,0.1-2.6,0.5c-0.7,0.3-1.2,0.8-1.6,1.4
	c-0.4,0.6-0.7,1.3-0.8,2.1c-0.2,0.8-0.2,1.7-0.2,2.5V22.7z M123.2,23.2c-1,0-2-0.2-2.9-0.6c-0.9-0.3-1.7-0.9-2.3-1.6
	c-0.7-0.7-1.2-1.6-1.6-2.6c-0.4-1-0.6-2.3-0.6-3.7c0-1.2,0.2-2.3,0.5-3.3s0.8-1.9,1.4-2.7c0.6-0.8,1.4-1.4,2.3-1.8
	c0.9-0.4,2-0.7,3.2-0.7c1.3,0,2.3,0.2,3.3,0.7c0.9,0.4,1.7,1,2.3,1.8s1.1,1.6,1.4,2.7c0.3,1,0.4,2.1,0.4,3.3c0,1.3-0.2,2.4-0.5,3.4
	c-0.3,1-0.8,1.9-1.5,2.6c-0.6,0.7-1.4,1.3-2.3,1.7C125.4,23,124.3,23.2,123.2,23.2z M128.7,14.8c0-0.9-0.1-1.8-0.3-2.6
	s-0.5-1.5-1-2.1s-1-1.1-1.7-1.4c-0.7-0.3-1.5-0.5-2.5-0.5c-1,0-1.8,0.2-2.5,0.6c-0.7,0.4-1.2,0.9-1.7,1.5c-0.4,0.6-0.7,1.3-1,2.2
	c-0.2,0.8-0.3,1.6-0.3,2.5c0,1,0.1,1.9,0.4,2.7c0.2,0.8,0.6,1.5,1,2.1c0.5,0.6,1,1.1,1.7,1.4s1.5,0.5,2.3,0.5c1,0,1.8-0.2,2.5-0.6
	c0.7-0.4,1.2-0.9,1.7-1.5c0.4-0.6,0.7-1.4,1-2.2S128.7,15.6,128.7,14.8z M144.3,6.8h1.8v15.9h-1.8v-2.2c-0.2,0.3-0.5,0.6-0.8,0.9
	s-0.7,0.6-1.1,0.8c-0.4,0.3-0.9,0.5-1.4,0.6c-0.5,0.2-1.1,0.3-1.8,0.3c-1.1,0-2-0.1-2.7-0.4c-0.7-0.3-1.3-0.7-1.7-1.2
	c-0.4-0.5-0.8-1.2-1-1.9c-0.2-0.7-0.3-1.5-0.3-2.3V6.8h1.8v10.5c0,1.4,0.3,2.4,1,3.2c0.6,0.7,1.7,1.1,3.1,1.1c0.8,0,1.4-0.1,2-0.4
	c0.6-0.3,1.1-0.7,1.5-1.2c0.4-0.5,0.7-1.2,1-1.9s0.3-1.5,0.3-2.4V6.8z M152.1,29h-1.8V6.8h1.8v2.8h0.1c0.3-0.5,0.6-1,1-1.4
	c0.4-0.4,0.9-0.7,1.4-1c0.5-0.3,1-0.5,1.6-0.6c0.5-0.1,1.1-0.2,1.6-0.2c1.3,0,2.4,0.2,3.3,0.6s1.6,1,2.2,1.8c0.6,0.7,1,1.6,1.3,2.7
	c0.3,1,0.4,2.1,0.4,3.3c0,1.1-0.1,2.2-0.4,3.2c-0.3,1-0.7,1.9-1.3,2.7c-0.6,0.8-1.3,1.4-2.2,1.8c-0.9,0.5-1.9,0.7-3.2,0.7
	c-1.1,0-2.2-0.3-3.2-0.8c-1-0.5-1.9-1.2-2.4-2.2V29z M152.1,14.8c0,0.9,0.1,1.8,0.4,2.6c0.2,0.8,0.6,1.5,1.1,2.1
	c0.5,0.6,1,1.1,1.7,1.4c0.7,0.4,1.4,0.5,2.3,0.5c0.9,0,1.8-0.2,2.5-0.6c0.7-0.4,1.3-0.9,1.7-1.6c0.5-0.7,0.8-1.4,1-2.3
	c0.2-0.9,0.3-1.8,0.2-2.8c0-1-0.1-1.9-0.4-2.7c-0.3-0.8-0.7-1.4-1.2-2c-0.5-0.5-1.1-0.9-1.7-1.2c-0.7-0.3-1.4-0.4-2.2-0.4
	c-0.9,0-1.6,0.2-2.3,0.5c-0.7,0.3-1.2,0.8-1.7,1.4c-0.5,0.6-0.8,1.3-1,2.2S152.1,13.9,152.1,14.8z"/>
</svg>
