<?xml version="1.0" encoding="utf-8"?>
<!-- Generator: Adobe Illustrator 17.0.0, SVG Export Plug-In . SVG Version: 6.00 Build 0)  -->
<!DOCTYPE svg PUBLIC "-//W3C//DTD SVG 1.1//EN" "http://www.w3.org/Graphics/SVG/1.1/DTD/svg11.dtd" [
	<!ENTITY ns_flows "http://ns.adobe.com/Flows/1.0/">
	<!ENTITY ns_extend "http://ns.adobe.com/Extensibility/1.0/">
	<!ENTITY ns_ai "http://ns.adobe.com/AdobeIllustrator/10.0/">
	<!ENTITY ns_graphs "http://ns.adobe.com/Graphs/1.0/">
]>
<svg version="1.1" xmlns:x="&ns_extend;" xmlns:i="&ns_ai;" xmlns:graph="&ns_graphs;"
	 xmlns="http://www.w3.org/2000/svg" xmlns:xlink="http://www.w3.org/1999/xlink" xmlns:a="http://ns.adobe.com/AdobeSVGViewerExtensions/3.0/"
	 x="0px" y="0px" width="135.374px" height="20px" viewBox="0 0 135.374 20" enable-background="new 0 0 135.374 20"
	 xml:space="preserve">
<polygon fill="#FFFFFF" points="0,0.347 0,15.592 16.205,15.592 16.205,11.877 6.021,11.877 6.021,9.826 15.48,9.826 15.48,6.112 
	6.021,6.112 6.021,4.062 16.205,4.062 16.205,0.347 "/>
<polygon fill="#FFFFFF" points="29.91,9.507 23.142,9.507 23.142,15.592 17.121,15.592 17.121,0.347 23.142,0.347 23.142,5.662 
	29.91,5.662 29.91,0.347 35.931,0.347 35.931,15.592 29.91,15.592 "/>
<path fill="#FFFFFF" d="M43.191,0.347h7.387l6.491,15.245h-6.406l-0.641-1.752h-6.276l-0.641,1.752h-6.405L43.191,0.347z
	 M46.906,4.958h-0.043l-1.794,5.168h3.629L46.906,4.958z"/>
<polygon fill="#E0E0E0" points="122.966,2.836 132.153,19.63 132.153,2.836 "/>
<polygon fill="#FFFFFF" points="124.637,0.375 135.373,20 135.373,0.375 "/>
<g>
	<defs>
		<rect id="SVGID_1_" x="0" width="135.374" height="20"/>
	</defs>
	<clipPath id="SVGID_2_">
		<use xlink:href="#SVGID_1_"  overflow="visible"/>
	</clipPath>
	<path clip-path="url(#SVGID_2_)" fill="#FFFFFF" d="M64.135,8.967V7.744h6.499v7.848H69.41v-2.595
		c-0.267,0.451-0.573,0.862-0.918,1.234c-0.344,0.373-0.742,0.689-1.192,0.949c-0.451,0.261-0.97,0.461-1.562,0.601
		c-0.59,0.141-1.259,0.211-2.004,0.211c-0.957,0-1.843-0.169-2.658-0.507c-0.816-0.337-1.52-0.84-2.11-1.508
		s-1.052-1.509-1.382-2.522c-0.331-1.013-0.496-2.194-0.496-3.544c0-1.111,0.141-2.149,0.422-3.112
		c0.281-0.963,0.714-1.8,1.298-2.511c0.584-0.71,1.315-1.269,2.195-1.677C61.881,0.205,62.919,0,64.114,0
		c0.802,0,1.551,0.099,2.247,0.295c0.696,0.198,1.322,0.497,1.878,0.897c0.555,0.401,1.023,0.9,1.403,1.498
		c0.379,0.597,0.654,1.304,0.822,2.12h-1.477c-0.126-0.562-0.341-1.068-0.643-1.519c-0.302-0.45-0.665-0.826-1.087-1.129
		c-0.422-0.302-0.893-0.534-1.413-0.696c-0.521-0.161-1.062-0.243-1.624-0.243c-0.999,0-1.857,0.176-2.574,0.528
		c-0.717,0.351-1.309,0.847-1.772,1.487c-0.464,0.641-0.806,1.407-1.024,2.299c-0.217,0.894-0.326,1.875-0.326,2.943
		c0,0.844,0.123,1.646,0.369,2.406c0.246,0.759,0.605,1.427,1.076,2.004c0.471,0.577,1.048,1.034,1.73,1.372
		c0.682,0.337,1.459,0.506,2.331,0.506c0.408,0,0.83-0.045,1.266-0.137c0.436-0.091,0.858-0.242,1.266-0.453
		c0.408-0.211,0.788-0.486,1.14-0.823c0.351-0.337,0.654-0.752,0.907-1.245c0.239-0.478,0.405-0.977,0.496-1.498
		c0.091-0.52,0.145-1.068,0.158-1.645H64.135z"/>
	<path clip-path="url(#SVGID_2_)" fill="#FFFFFF" d="M74.854,15.592h-1.266V4.663h1.266V6.71h0.043
		c0.351-0.872,0.804-1.48,1.361-1.825c0.555-0.345,1.291-0.517,2.205-0.517v1.372c-0.717-0.014-1.308,0.098-1.773,0.337
		c-0.464,0.239-0.833,0.563-1.107,0.97c-0.274,0.408-0.465,0.89-0.571,1.445c-0.105,0.556-0.158,1.136-0.158,1.741V15.592z"/>
	<path clip-path="url(#SVGID_2_)" fill="#FFFFFF" d="M84.516,15.887c-0.704-0.014-1.361-0.141-1.973-0.38
		c-0.612-0.239-1.147-0.597-1.603-1.076c-0.457-0.478-0.82-1.076-1.086-1.793c-0.268-0.717-0.401-1.554-0.401-2.511
		c0-0.802,0.106-1.551,0.317-2.247c0.211-0.697,0.527-1.304,0.949-1.825c0.422-0.521,0.95-0.932,1.582-1.234
		c0.633-0.302,1.372-0.453,2.216-0.453c0.858,0,1.603,0.151,2.236,0.453c0.633,0.302,1.16,0.71,1.582,1.223
		c0.422,0.514,0.735,1.122,0.939,1.825c0.204,0.704,0.307,1.456,0.307,2.258c0,0.872-0.12,1.66-0.359,2.363
		c-0.239,0.704-0.579,1.308-1.023,1.815c-0.442,0.506-0.978,0.896-1.603,1.171C85.968,15.75,85.276,15.887,84.516,15.887
		 M88.229,10.127c0-0.647-0.071-1.252-0.211-1.815c-0.141-0.562-0.358-1.051-0.654-1.466c-0.295-0.415-0.675-0.741-1.139-0.981
		c-0.464-0.239-1.034-0.359-1.709-0.359c-0.662,0-1.228,0.13-1.699,0.39s-0.855,0.605-1.149,1.034
		c-0.296,0.429-0.514,0.922-0.654,1.477c-0.141,0.555-0.211,1.129-0.211,1.719c0,0.676,0.081,1.298,0.243,1.867
		s0.397,1.059,0.707,1.466c0.309,0.408,0.696,0.724,1.16,0.95c0.464,0.225,0.999,0.337,1.603,0.337c0.661,0,1.227-0.13,1.698-0.391
		c0.471-0.26,0.855-0.608,1.15-1.044c0.296-0.436,0.513-0.929,0.654-1.477C88.159,11.288,88.229,10.719,88.229,10.127"/>
	<path clip-path="url(#SVGID_2_)" fill="#FFFFFF" d="M98.927,4.663h1.266v10.929h-1.266v-1.519c-0.169,0.197-0.359,0.401-0.57,0.612
		c-0.211,0.211-0.453,0.405-0.728,0.58c-0.274,0.176-0.594,0.324-0.959,0.443c-0.366,0.119-0.787,0.18-1.266,0.18
		c-0.731,0-1.343-0.102-1.835-0.307c-0.492-0.203-0.89-0.488-1.193-0.854c-0.302-0.366-0.521-0.791-0.654-1.277
		c-0.134-0.485-0.201-1.016-0.201-1.592V4.663h1.266v7.173c0,0.942,0.218,1.664,0.654,2.162c0.436,0.499,1.154,0.75,2.152,0.75
		c0.52,0,0.988-0.102,1.403-0.307c0.415-0.204,0.763-0.488,1.044-0.855c0.281-0.366,0.499-0.802,0.654-1.308
		c0.155-0.506,0.232-1.062,0.232-1.667V4.663z"/>
	<path clip-path="url(#SVGID_2_)" fill="#FFFFFF" d="M104.286,19.896h-1.266V4.663h1.266v1.92h0.043
		c0.182-0.351,0.418-0.668,0.706-0.949c0.289-0.281,0.605-0.514,0.95-0.696c0.344-0.183,0.699-0.324,1.065-0.422
		c0.366-0.098,0.724-0.147,1.077-0.147c0.886,0,1.638,0.147,2.257,0.443c0.619,0.296,1.129,0.7,1.529,1.213
		c0.401,0.514,0.693,1.122,0.876,1.825c0.182,0.704,0.274,1.456,0.274,2.258c0,0.76-0.099,1.491-0.296,2.194
		c-0.197,0.704-0.495,1.319-0.896,1.846c-0.401,0.527-0.907,0.95-1.519,1.266c-0.612,0.317-1.333,0.475-2.163,0.475
		c-0.774,0-1.516-0.172-2.226-0.517c-0.71-0.344-1.269-0.854-1.677-1.529V19.896z M104.286,10.17c0,0.619,0.084,1.206,0.253,1.762
		s0.411,1.041,0.728,1.456c0.316,0.415,0.703,0.745,1.16,0.992c0.457,0.246,0.974,0.369,1.551,0.369c0.647,0,1.213-0.13,1.698-0.39
		c0.486-0.26,0.883-0.615,1.193-1.066c0.309-0.45,0.534-0.974,0.675-1.572c0.141-0.597,0.197-1.241,0.169-1.931
		c0-0.689-0.095-1.298-0.285-1.825c-0.19-0.527-0.454-0.974-0.791-1.339c-0.337-0.366-0.732-0.643-1.182-0.833
		c-0.45-0.191-0.942-0.285-1.477-0.285c-0.591,0-1.119,0.119-1.583,0.359c-0.464,0.239-0.851,0.566-1.16,0.981
		c-0.31,0.415-0.546,0.907-0.707,1.477C104.367,8.893,104.286,9.508,104.286,10.17"/>
</g>
</svg>
